# xmcd
# 
# Track frame offsets:
#     150
#     19230
#     40979
#     57096
# 
# Disc length: 953
# 
# Revision: 0
# Processed by: cddbd v1.5.2PL0 Copyright (c) Steve Scherf et al.
# Submitted via: BonkEnc v1.0.15
# 
DISCID=2c03b704
DTITLE=Various Artist - The Music of Lincoln
DYEAR=2010
DGENRE=Alternative
TTITLE0=Shiny Toy Guns - Major Tom
TTITLE1=Shiny Toy Guns - Burnin' For You
TTITLE2=Sia - Under The Milky Way
TTITLE3=CSS - Twilight Zone
EXTD=
EXTT0=
EXTT1=
EXTT2=
EXTT3=
PLAYORDER=
